<svg width="0" height="0" class="hidden">
  <symbol xmlns="http://www.w3.org/2000/svg" viewBox="0 0 448 512" id="linkedin">
    <path d="M416 32H31.9C14.3 32 0 46.5 0 64.3v383.4C0 465.5 14.3 480 31.9 480H416c17.6 0 32-14.5 32-32.3V64.3c0-17.8-14.4-32.3-32-32.3zM135.4 416H69V202.2h66.5V416zm-33.2-243c-21.3 0-38.5-17.3-38.5-38.5S80.9 96 102.2 96c21.2 0 38.5 17.3 38.5 38.5 0 21.3-17.2 38.5-38.5 38.5zm282.1 243h-66.4V312c0-24.8-.5-56.7-34.5-56.7-34.6 0-39.9 27-39.9 54.9V416h-66.4V202.2h63.7v29.2h.9c8.9-16.8 30.6-34.5 62.9-34.5 67.2 0 79.7 44.3 79.7 101.9V416z"></path>
  </symbol>
  <symbol xmlns="http://www.w3.org/2000/svg" viewBox="0 0 576 512" id="map">
    <path d="M565.6 36.2C572.1 40.7 576 48.1 576 56V392c0 10-6.2 18.9-15.5 22.4l-168 64c-5.2 2-10.9 2.1-16.1 .3L192.5 417.5l-160 61c-7.4 2.8-15.7 1.8-22.2-2.7S0 463.9 0 456V120c0-10 6.1-18.9 15.5-22.4l168-64c5.2-2 10.9-2.1 16.1-.3L383.5 94.5l160-61c7.4-2.8 15.7-1.8 22.2 2.7zM48 136.5V421.2l120-45.7V90.8L48 136.5zM360 422.7V137.3l-144-48V374.7l144 48zm48-1.5l120-45.7V90.8L408 136.5V421.2z"></path>
  </symbol>
  <symbol xmlns="http://www.w3.org/2000/svg" viewBox="0 0 384 512" id="mobile">
    <path d="M16 64C16 28.7 44.7 0 80 0H304c35.3 0 64 28.7 64 64V448c0 35.3-28.7 64-64 64H80c-35.3 0-64-28.7-64-64V64zM144 448c0 8.8 7.2 16 16 16h64c8.8 0 16-7.2 16-16s-7.2-16-16-16H160c-8.8 0-16 7.2-16 16zM304 64H80V384H304V64z"></path>
  </symbol>
  <symbol xmlns="http://www.w3.org/2000/svg" viewBox="0 0 448 512" id="twitter">
    <path d="M64 32C28.7 32 0 60.7 0 96V416c0 35.3 28.7 64 64 64H384c35.3 0 64-28.7 64-64V96c0-35.3-28.7-64-64-64H64zm297.1 84L257.3 234.6 379.4 396H283.8L209 298.1 123.3 396H75.8l111-126.9L69.7 116h98l67.7 89.5L313.6 116h47.5zM323.3 367.6L153.4 142.9H125.1L296.9 367.6h26.3z"></path>
  </symbol>
  <symbol xmlns="http://www.w3.org/2000/svg" viewBox="0 0 448 512" id="calendar">
    <path d="M128 0c13.3 0 24 10.7 24 24V64H296V24c0-13.3 10.7-24 24-24s24 10.7 24 24V64h40c35.3 0 64 28.7 64 64v16 48V448c0 35.3-28.7 64-64 64H64c-35.3 0-64-28.7-64-64V192 144 128C0 92.7 28.7 64 64 64h40V24c0-13.3 10.7-24 24-24zM400 192H48V448c0 8.8 7.2 16 16 16H384c8.8 0 16-7.2 16-16V192zM329 297L217 409c-9.4 9.4-24.6 9.4-33.9 0l-64-64c-9.4-9.4-9.4-24.6 0-33.9s24.6-9.4 33.9 0l47 47 95-95c9.4-9.4 24.6-9.4 33.9 0s9.4 24.6 0 33.9z"></path>
  </symbol>
  <symbol xmlns="http://www.w3.org/2000/svg" viewBox="0 0 512 512" id="envelope">
    <path d="M255.4 48.2c.2-.1 .4-.2 .6-.2s.4 .1 .6 .2L460.6 194c2.1 1.5 3.4 3.9 3.4 6.5v13.6L291.5 355.7c-20.7 17-50.4 17-71.1 0L48 214.1V200.5c0-2.6 1.2-5 3.4-6.5L255.4 48.2zM48 276.2L190 392.8c38.4 31.5 93.7 31.5 132 0L464 276.2V456c0 4.4-3.6 8-8 8H56c-4.4 0-8-3.6-8-8V276.2zM256 0c-10.2 0-20.2 3.2-28.5 9.1L23.5 154.9C8.7 165.4 0 182.4 0 200.5V456c0 30.9 25.1 56 56 56H456c30.9 0 56-25.1 56-56V200.5c0-18.1-8.7-35.1-23.4-45.6L284.5 9.1C276.2 3.2 266.2 0 256 0z"></path>
  </symbol>
  <symbol xmlns="http://www.w3.org/2000/svg" viewBox="0 0 448 512" id="facebook">
    <path d="M400 32H48A48 48 0 0 0 0 80v352a48 48 0 0 0 48 48h137.25V327.69h-63V256h63v-54.64c0-62.15 37-96.48 93.67-96.48 27.14 0 55.52 4.84 55.52 4.84v61h-31.27c-30.81 0-40.42 19.12-40.42 38.73V256h68.78l-11 71.69h-57.78V480H400a48 48 0 0 0 48-48V80a48 48 0 0 0-48-48z"></path>
  </symbol>
  <symbol xmlns="http://www.w3.org/2000/svg" viewBox="0 0 448 512" id="instagram">
    <path d="M224,202.66A53.34,53.34,0,1,0,277.36,256,53.38,53.38,0,0,0,224,202.66Zm124.71-41a54,54,0,0,0-30.41-30.41c-21-8.29-71-6.43-94.3-6.43s-73.25-1.93-94.31,6.43a54,54,0,0,0-30.41,30.41c-8.28,21-6.43,71.05-6.43,94.33S91,329.26,99.32,350.33a54,54,0,0,0,30.41,30.41c21,8.29,71,6.43,94.31,6.43s73.24,1.93,94.3-6.43a54,54,0,0,0,30.41-30.41c8.35-21,6.43-71.05,6.43-94.33S357.1,182.74,348.75,161.67ZM224,338a82,82,0,1,1,82-82A81.9,81.9,0,0,1,224,338Zm85.38-148.3a19.14,19.14,0,1,1,19.13-19.14A19.1,19.1,0,0,1,309.42,189.74ZM400,32H48A48,48,0,0,0,0,80V432a48,48,0,0,0,48,48H400a48,48,0,0,0,48-48V80A48,48,0,0,0,400,32ZM382.88,322c-1.29,25.63-7.14,48.34-25.85,67s-41.4,24.63-67,25.85c-26.41,1.49-105.59,1.49-132,0-25.63-1.29-48.26-7.15-67-25.85s-24.63-41.42-25.85-67c-1.49-26.42-1.49-105.61,0-132,1.29-25.63,7.07-48.34,25.85-67s41.47-24.56,67-25.78c26.41-1.49,105.59-1.49,132,0,25.63,1.29,48.33,7.15,67,25.85s24.63,41.42,25.85,67.05C384.37,216.44,384.37,295.56,382.88,322Z"></path>
  </symbol>
    <symbol xmlns="http://www.w3.org/2000/svg" viewBox="0 0 512 512" id="chevron-down">
    <path d="M233.4 406.6c12.5 12.5 32.8 12.5 45.3 0l192-192c12.5-12.5 12.5-32.8 0-45.3s-32.8-12.5-45.3 0L256 338.7 86.6 169.4c-12.5-12.5-32.8-12.5-45.3 0s-12.5 32.8 0 45.3l192 192z"></path>
  </symbol>
  <symbol xmlns="http://www.w3.org/2000/svg" viewBox="0 0 384 512" id="close">
    <path d="M342.6 150.6c12.5-12.5 12.5-32.8 0-45.3s-32.8-12.5-45.3 0L192 210.7 86.6 105.4c-12.5-12.5-32.8-12.5-45.3 0s-12.5 32.8 0 45.3L146.7 256 41.4 361.4c-12.5 12.5-12.5 32.8 0 45.3s32.8 12.5 45.3 0L192 301.3 297.4 406.6c12.5 12.5 32.8 12.5 45.3 0s12.5-32.8 0-45.3L237.3 256 342.6 150.6z"></path>
  </symbol>
  <symbol xmlns="http://www.w3.org/2000/svg" viewBox="0 0 24 24" id="quotes">
    <path d="M4.58341 17.3211C3.55316 16.2275 3 15 3 13.0104C3 9.51092 5.45651 6.37372 9.03059 4.82324L9.92328 6.20085C6.58804 8.00545 5.93618 10.3461 5.67564 11.8221C6.21263 11.5444 6.91558 11.4467 7.60471 11.5106C9.40908 11.6778 10.8312 13.1591 10.8312 15C10.8312 16.933 9.26416 18.5 7.33116 18.5C6.2581 18.5 5.23196 18.0096 4.58341 17.3211ZM14.5834 17.3211C13.5532 16.2275 13 15 13 13.0104C13 9.51092 15.4565 6.37372 19.0306 4.82324L19.9233 6.20085C16.588 8.00545 15.9362 10.3461 15.6756 11.8221C16.2126 11.5444 16.9156 11.4467 17.6047 11.5106C19.4091 11.6778 20.8312 13.1591 20.8312 15C20.8312 16.933 19.2642 18.5 17.3312 18.5C16.2581 18.5 15.232 18.0096 14.5834 17.3211Z"></path>
  </symbol>
  <symbol xmlns="http://www.w3.org/2000/svg" viewBox="0 0 640 512" id="torah">
    <path d="M96 480V32C96 14.3 74.5 0 48 0S0 14.3 0 32V480c0 17.7 21.5 32 48 32s48-14.3 48-32zM512 32H128V480H512V32zM592 0c-26.5 0-48 14.3-48 32V480c0 17.7 21.5 32 48 32s48-14.3 48-32V32c0-17.7-21.5-32-48-32zM196 313.7c0-3.2 .9-6.4 2.5-9.2L226.7 256l-28.3-48.5c-1.6-2.8-2.5-6-2.5-9.2c0-10.1 8.2-18.3 18.3-18.3H271l31.4-53.9c3.6-6.3 10.3-10.1 17.6-10.1s13.9 3.8 17.6 10.1L369 180h56.7c10.1 0 18.3 8.2 18.3 18.3c0 3.2-.9 6.4-2.5 9.2L413.3 256l28.3 48.5c1.6 2.8 2.5 6 2.5 9.2c0 10.1-8.2 18.3-18.3 18.3H369l-31.4 53.9c-3.6 6.3-10.3 10.1-17.6 10.1s-13.9-3.8-17.6-10.1L271 332H214.3c-10.1 0-18.3-8.2-18.3-18.3zm124 54.7L341.2 332H298.8L320 368.4zM254.5 256l30.3 52h70.4l30.3-52-30.3-52H284.8l-30.3 52zm144.9 23.8L383 308h32.8l-16.4-28.2zM415.8 204H383l16.4 28.2L415.8 204zM320 143.6L298.8 180h42.4L320 143.6zM224.2 204l16.4 28.2L257 204H224.2zM257 308l-16.4-28.2L224.2 308H257z"></path>
  </symbol>
    <symbol xmlns="http://www.w3.org/2000/svg" viewBox="0 0 576 512" id="person-digging">
    <path d="M208 64a48 48 0 1 1 96 0 48 48 0 1 1 -96 0zM9.8 214.8c5.1-12.2 19.1-18 31.4-12.9L60.7 210l22.9-38.1C99.9 144.6 129.3 128 161 128c51.4 0 97 32.9 113.3 81.7l34.6 103.7 79.3 33.1 34.2-45.6c6.4-8.5 16.6-13.3 27.2-12.8s20.3 6.4 25.8 15.5l96 160c5.9 9.9 6.1 22.2 .4 32.2s-16.3 16.2-27.8 16.2H288c-11.1 0-21.4-5.7-27.2-15.2s-6.4-21.2-1.4-31.1l16-32c5.4-10.8 16.5-17.7 28.6-17.7h32l22.5-30L22.8 246.2c-12.2-5.1-18-19.1-12.9-31.4zm82.8 91.8l112 48c11.8 5 19.4 16.6 19.4 29.4v96c0 17.7-14.3 32-32 32s-32-14.3-32-32V405.1l-60.6-26-37 111c-5.6 16.8-23.7 25.8-40.5 20.2S-3.9 486.6 1.6 469.9l48-144 11-33 32 13.7z"></path>
  </symbol>
   <symbol xmlns="http://www.w3.org/2000/svg" viewBox="0 0 512 512" id="face">
    <path d="M174.5 498.8C73.1 464.7 0 368.9 0 256C0 114.6 114.6 0 256 0S512 114.6 512 256c0 112.9-73.1 208.7-174.5 242.8C346.7 484 352 466.6 352 448V401.1c24.3-17.5 43.6-41.6 55.4-69.6c5-11.8-7-22.5-19.3-18.7c-39.7 12.2-84.5 19-131.8 19s-92.1-6.8-131.8-19c-12.3-3.8-24.3 6.9-19.3 18.7c11.7 27.8 30.8 51.7 54.8 69.2V448c0 18.6 5.3 36 14.5 50.8zm20.7-265.2c5.3 7.1 15.3 8.5 22.4 3.2s8.5-15.3 3.2-22.4c-30.4-40.5-91.2-40.5-121.6 0c-5.3 7.1-3.9 17.1 3.2 22.4s17.1 3.9 22.4-3.2c17.6-23.5 52.8-23.5 70.4 0zM336 272a64 64 0 1 0 0-128 64 64 0 1 0 0 128zM320 402.6V448c0 35.3-28.7 64-64 64s-64-28.7-64-64V402.6c0-14.7 11.9-26.6 26.6-26.6h2c11.3 0 21.1 7.9 23.6 18.9c2.8 12.6 20.8 12.6 23.6 0c2.5-11.1 12.3-18.9 23.6-18.9h2c14.7 0 26.6 11.9 26.6 26.6zM336 184a24 24 0 1 1 0 48 24 24 0 1 1 0-48z"></path>
  </symbol>
    <symbol xmlns="http://www.w3.org/2000/svg" viewBox="0 0 50 50" id="telegram">
    <path d="M46.137,6.552c-0.75-0.636-1.928-0.727-3.146-0.238l-0.002,0C41.708,6.828,6.728,21.832,5.304,22.445	c-0.259,0.09-2.521,0.934-2.288,2.814c0.208,1.695,2.026,2.397,2.248,2.478l8.893,3.045c0.59,1.964,2.765,9.21,3.246,10.758	c0.3,0.965,0.789,2.233,1.646,2.494c0.752,0.29,1.5,0.025,1.984-0.355l5.437-5.043l8.777,6.845l0.209,0.125	c0.596,0.264,1.167,0.396,1.712,0.396c0.421,0,0.825-0.079,1.211-0.237c1.315-0.54,1.841-1.793,1.896-1.935l6.556-34.077	C47.231,7.933,46.675,7.007,46.137,6.552z M22,32l-3,8l-3-10l23-17L22,32z"></path>
  </symbol>
</svg>